<mxfile host="app.diagrams.net" modified="2023-10-29T01:06:56.556Z" agent="Mozilla/5.0 (Windows NT 10.0; Win64; x64) AppleWebKit/537.36 (KHTML, like Gecko) Chrome/118.0.0.0 Safari/537.36 Edg/118.0.2088.61" etag="7rVYue8pYLrWgaUyHQzF" version="22.0.8" type="github">
  <diagram name="Page-1" id="zj30B-gfy9_utFTtups8">
    <mxGraphModel dx="1282" dy="577" grid="1" gridSize="10" guides="1" tooltips="1" connect="1" arrows="1" fold="1" page="1" pageScale="1" pageWidth="850" pageHeight="1100" math="0" shadow="0">
      <root>
        <mxCell id="0" />
        <mxCell id="1" parent="0" />
        <mxCell id="lDdUBt69Ilt3XIsVKAMm-9" style="edgeStyle=orthogonalEdgeStyle;rounded=0;orthogonalLoop=1;jettySize=auto;html=1;exitX=0.5;exitY=1;exitDx=0;exitDy=0;" edge="1" parent="1" source="lDdUBt69Ilt3XIsVKAMm-1" target="lDdUBt69Ilt3XIsVKAMm-3">
          <mxGeometry relative="1" as="geometry" />
        </mxCell>
        <mxCell id="lDdUBt69Ilt3XIsVKAMm-1" value="Road segmentation" style="rounded=0;whiteSpace=wrap;html=1;" vertex="1" parent="1">
          <mxGeometry x="365" width="120" height="60" as="geometry" />
        </mxCell>
        <mxCell id="lDdUBt69Ilt3XIsVKAMm-11" style="edgeStyle=orthogonalEdgeStyle;rounded=0;orthogonalLoop=1;jettySize=auto;html=1;exitX=0.5;exitY=1;exitDx=0;exitDy=0;entryX=0.5;entryY=0;entryDx=0;entryDy=0;" edge="1" parent="1" source="lDdUBt69Ilt3XIsVKAMm-2" target="lDdUBt69Ilt3XIsVKAMm-4">
          <mxGeometry relative="1" as="geometry" />
        </mxCell>
        <mxCell id="lDdUBt69Ilt3XIsVKAMm-2" value="Object Tracking" style="rounded=0;whiteSpace=wrap;html=1;" vertex="1" parent="1">
          <mxGeometry x="365" y="160" width="120" height="60" as="geometry" />
        </mxCell>
        <mxCell id="lDdUBt69Ilt3XIsVKAMm-10" style="edgeStyle=orthogonalEdgeStyle;rounded=0;orthogonalLoop=1;jettySize=auto;html=1;exitX=0.5;exitY=1;exitDx=0;exitDy=0;entryX=0.5;entryY=0;entryDx=0;entryDy=0;" edge="1" parent="1" source="lDdUBt69Ilt3XIsVKAMm-3" target="lDdUBt69Ilt3XIsVKAMm-2">
          <mxGeometry relative="1" as="geometry" />
        </mxCell>
        <mxCell id="lDdUBt69Ilt3XIsVKAMm-3" value="2D Object Detection" style="rounded=0;whiteSpace=wrap;html=1;" vertex="1" parent="1">
          <mxGeometry x="365" y="80" width="120" height="60" as="geometry" />
        </mxCell>
        <mxCell id="lDdUBt69Ilt3XIsVKAMm-12" style="edgeStyle=orthogonalEdgeStyle;rounded=0;orthogonalLoop=1;jettySize=auto;html=1;exitX=0.5;exitY=1;exitDx=0;exitDy=0;entryX=0.5;entryY=0;entryDx=0;entryDy=0;" edge="1" parent="1" source="lDdUBt69Ilt3XIsVKAMm-4" target="lDdUBt69Ilt3XIsVKAMm-5">
          <mxGeometry relative="1" as="geometry" />
        </mxCell>
        <mxCell id="lDdUBt69Ilt3XIsVKAMm-4" value="3D Data Visualization" style="rounded=0;whiteSpace=wrap;html=1;" vertex="1" parent="1">
          <mxGeometry x="365" y="240" width="120" height="60" as="geometry" />
        </mxCell>
        <mxCell id="lDdUBt69Ilt3XIsVKAMm-13" style="edgeStyle=orthogonalEdgeStyle;rounded=0;orthogonalLoop=1;jettySize=auto;html=1;exitX=0.5;exitY=1;exitDx=0;exitDy=0;entryX=0.5;entryY=0;entryDx=0;entryDy=0;" edge="1" parent="1" source="lDdUBt69Ilt3XIsVKAMm-5" target="lDdUBt69Ilt3XIsVKAMm-6">
          <mxGeometry relative="1" as="geometry" />
        </mxCell>
        <mxCell id="lDdUBt69Ilt3XIsVKAMm-5" value="Multi Task Learning" style="rounded=0;whiteSpace=wrap;html=1;" vertex="1" parent="1">
          <mxGeometry x="365" y="320" width="120" height="60" as="geometry" />
        </mxCell>
        <mxCell id="lDdUBt69Ilt3XIsVKAMm-14" style="edgeStyle=orthogonalEdgeStyle;rounded=0;orthogonalLoop=1;jettySize=auto;html=1;exitX=0.5;exitY=1;exitDx=0;exitDy=0;entryX=0.5;entryY=0;entryDx=0;entryDy=0;" edge="1" parent="1" source="lDdUBt69Ilt3XIsVKAMm-6" target="lDdUBt69Ilt3XIsVKAMm-7">
          <mxGeometry relative="1" as="geometry" />
        </mxCell>
        <mxCell id="lDdUBt69Ilt3XIsVKAMm-6" value="3D Object Detection" style="rounded=0;whiteSpace=wrap;html=1;" vertex="1" parent="1">
          <mxGeometry x="365" y="400" width="120" height="60" as="geometry" />
        </mxCell>
        <mxCell id="lDdUBt69Ilt3XIsVKAMm-7" value="Birds exe view&amp;nbsp;" style="rounded=0;whiteSpace=wrap;html=1;" vertex="1" parent="1">
          <mxGeometry x="365" y="480" width="120" height="60" as="geometry" />
        </mxCell>
      </root>
    </mxGraphModel>
  </diagram>
</mxfile>
